<svg width="32" height="32" viewBox="0 0 32 32" fill="none" xmlns="http://www.w3.org/2000/svg">
<g clip-path="url(#clip0_1545_3525)">
<path d="M4.57143 21.7143V20.5714H2.28571V21.7143C2.28571 23.836 3.12857 25.8708 4.62886 27.3711C6.12915 28.8714 8.16398 29.7143 10.2857 29.7143H13.7143V27.4286H10.2857C8.77019 27.4286 7.31674 26.8265 6.2451 25.7549C5.17347 24.6833 4.57143 23.2298 4.57143 21.7143ZM25.1429 10.2857V11.4286H27.4286V10.2857C27.4286 8.16398 26.5857 6.12915 25.0854 4.62886C23.5851 3.12857 21.5503 2.28572 19.4286 2.28572H16V4.57143H19.4286C20.179 4.57143 20.922 4.71923 21.6153 5.0064C22.3086 5.29357 22.9386 5.71449 23.4692 6.24511C23.9998 6.77573 24.4207 7.40566 24.7079 8.09895C24.9951 8.79224 25.1429 9.53531 25.1429 10.2857ZM10.2857 10.2857H3.42857C2.51926 10.2857 1.64719 10.6469 1.00421 11.2899C0.361224 11.9329 0 12.805 0 13.7143V16H2.28571V13.7143C2.28571 13.4112 2.40612 13.1205 2.62045 12.9062C2.83478 12.6918 3.12547 12.5714 3.42857 12.5714H10.2857C10.5888 12.5714 10.8795 12.6918 11.0938 12.9062C11.3082 13.1205 11.4286 13.4112 11.4286 13.7143V16H13.7143V13.7143C13.7143 12.805 13.3531 11.9329 12.7101 11.2899C12.0671 10.6469 11.195 10.2857 10.2857 10.2857ZM6.85714 9.14286C7.76129 9.14286 8.64512 8.87475 9.39689 8.37243C10.1487 7.87012 10.7346 7.15616 11.0806 6.32084C11.4266 5.48552 11.5171 4.56636 11.3407 3.67959C11.1643 2.79282 10.729 1.97827 10.0896 1.33894C9.4503 0.699617 8.63575 0.26423 7.74898 0.0878408C6.86221 -0.0885488 5.94305 0.00198071 5.10773 0.347981C4.27241 0.693982 3.55845 1.27991 3.05614 2.03168C2.55382 2.78345 2.28571 3.66729 2.28571 4.57143C2.28571 5.78385 2.76735 6.94661 3.62465 7.80392C4.48196 8.66123 5.64472 9.14286 6.85714 9.14286ZM6.85714 2.28572C7.30921 2.28572 7.75113 2.41977 8.12702 2.67093C8.5029 2.92209 8.79587 3.27907 8.96887 3.69673C9.14187 4.11438 9.18713 4.57397 9.09894 5.01735C9.01074 5.46074 8.79305 5.86801 8.47339 6.18767C8.15372 6.50734 7.74645 6.72503 7.30306 6.81323C6.85968 6.90142 6.4001 6.85616 5.98244 6.68316C5.56478 6.51015 5.2078 6.21719 4.95664 5.8413C4.70548 5.46542 4.57143 5.0235 4.57143 4.57143C4.57143 3.96522 4.81224 3.38384 5.2409 2.95519C5.66955 2.52653 6.25093 2.28572 6.85714 2.28572ZM28.5714 26.2857H21.7143C20.805 26.2857 19.9329 26.6469 19.2899 27.2899C18.6469 27.9329 18.2857 28.805 18.2857 29.7143V32H20.5714V29.7143C20.5714 29.4112 20.6918 29.1205 20.9062 28.9062C21.1205 28.6918 21.4112 28.5714 21.7143 28.5714H28.5714C28.8745 28.5714 29.1652 28.6918 29.3795 28.9062C29.5939 29.1205 29.7143 29.4112 29.7143 29.7143V32H32V29.7143C32 28.805 31.6388 27.9329 30.9958 27.2899C30.3528 26.6469 29.4807 26.2857 28.5714 26.2857ZM20.5714 20.5714C20.5714 21.4756 20.8395 22.3594 21.3419 23.1112C21.8442 23.8629 22.5581 24.4489 23.3934 24.7949C24.2288 25.1409 25.1479 25.2314 26.0347 25.055C26.9215 24.8786 27.736 24.4432 28.3753 23.8039C29.0147 23.1646 29.4501 22.35 29.6264 21.4633C29.8028 20.5765 29.7123 19.6573 29.3663 18.822C29.0203 17.9867 28.4344 17.2727 27.6826 16.7704C26.9308 16.2681 26.047 16 25.1429 16C23.9304 16 22.7677 16.4816 21.9104 17.3389C21.0531 18.1963 20.5714 19.359 20.5714 20.5714ZM27.4286 20.5714C27.4286 21.0235 27.2945 21.4654 27.0434 21.8413C26.7922 22.2172 26.4352 22.5102 26.0176 22.6832C25.5999 22.8562 25.1403 22.9014 24.6969 22.8132C24.2535 22.725 23.8463 22.5073 23.5266 22.1877C23.2069 21.868 22.9893 21.4607 22.9011 21.0174C22.8129 20.574 22.8581 20.1144 23.0311 19.6967C23.2041 19.2791 23.4971 18.9221 23.873 18.6709C24.2489 18.4198 24.6908 18.2857 25.1429 18.2857C25.7491 18.2857 26.3304 18.5265 26.7591 18.9552C27.1878 19.3838 27.4286 19.9652 27.4286 20.5714Z" fill="url(#paint0_linear_1545_3525)"/>
</g>
<defs>
<linearGradient id="paint0_linear_1545_3525" x1="32" y1="3.6613e-06" x2="-5.77244" y2="9.83875" gradientUnits="userSpaceOnUse">
<stop stop-color="#355BE0"/>
<stop offset="1" stop-color="#B945CC"/>
</linearGradient>
<clipPath id="clip0_1545_3525">
<rect width="32" height="32" fill="white"/>
</clipPath>
</defs>
</svg>
