<svg width="32" height="32" viewBox="0 0 32 32" fill="none" xmlns="http://www.w3.org/2000/svg">
<g clip-path="url(#clip0_1545_3531)">
<path d="M20.5714 18.2859V25.7144C20.5714 27.8859 21.8286 29.943 23.8857 30.8573L26.2857 32.0001L28.6857 30.8573C30.6286 29.943 32 27.8859 32 25.7144V18.2859H20.5714ZM29.7143 25.7144C29.7143 27.0859 28.9143 28.2287 27.7714 28.8001L26.2857 29.4859L24.8 28.8001C23.6571 28.2287 22.8571 26.9716 22.8571 25.7144V20.5716H29.7143V25.7144ZM16 20.5716C13.4857 20.5716 11.4286 18.5144 11.4286 16.0001C11.4286 13.4859 13.4857 11.4287 16 11.4287C18.5143 11.4287 20.5714 13.4859 20.5714 16.0001H18.2857C18.2857 14.743 17.2571 13.7144 16 13.7144C14.7429 13.7144 13.7143 14.743 13.7143 16.0001C13.7143 17.2573 14.7429 18.2859 16 18.2859V20.5716Z" fill="url(#paint0_linear_1545_3531)"/>
<path d="M16 26.2853C10.2857 26.2853 5.71429 21.7139 5.71429 15.9996C5.71429 10.2853 10.2857 5.71387 16 5.71387C21.7143 5.71387 26.2857 10.2853 26.2857 15.9996H24C24 11.5424 20.4571 7.99958 16 7.99958C11.5429 7.99958 8 11.5424 8 15.9996C8 20.4567 11.5429 23.9996 16 23.9996V26.2853Z" fill="url(#paint1_linear_1545_3531)"/>
<path d="M16 32C7.2 32 0 24.8 0 16C0 7.2 7.2 0 16 0C24.8 0 32 7.2 32 16H29.7143C29.7143 8.45714 23.5429 2.28571 16 2.28571C8.45714 2.28571 2.28571 8.45714 2.28571 16C2.28571 23.5429 8.45714 29.7143 16 29.7143V32Z" fill="url(#paint2_linear_1545_3531)"/>
</g>
<defs>
<linearGradient id="paint0_linear_1545_3531" x1="32" y1="11.4287" x2="7.71772" y2="17.7536" gradientUnits="userSpaceOnUse">
<stop stop-color="#355BE0"/>
<stop offset="1" stop-color="#B945CC"/>
</linearGradient>
<linearGradient id="paint1_linear_1545_3531" x1="26.2857" y1="5.71387" x2="2.00343" y2="12.0388" gradientUnits="userSpaceOnUse">
<stop stop-color="#355BE0"/>
<stop offset="1" stop-color="#B945CC"/>
</linearGradient>
<linearGradient id="paint2_linear_1545_3531" x1="32" y1="3.6613e-06" x2="-5.77244" y2="9.83875" gradientUnits="userSpaceOnUse">
<stop stop-color="#355BE0"/>
<stop offset="1" stop-color="#B945CC"/>
</linearGradient>
<clipPath id="clip0_1545_3531">
<rect width="32" height="32" fill="white"/>
</clipPath>
</defs>
</svg>
