<svg width="30" height="30" viewBox="0 0 30 30" fill="none" xmlns="http://www.w3.org/2000/svg">
<path d="M10.5625 18.1071C10.5625 19.8271 11.8825 21.2138 13.5225 21.2138H16.8692C18.2958 21.2138 19.4558 20.0004 19.4558 18.5071C19.4558 16.8804 18.7492 16.3071 17.6958 15.9338L12.3225 14.0671C11.2692 13.6938 10.5625 13.1204 10.5625 11.4938C10.5625 10.0004 11.7225 8.78711 13.1492 8.78711H16.4958C18.1358 8.78711 19.4558 10.1738 19.4558 11.8938" stroke="url(#paint0_linear_1418_7902)" stroke-width="1.5" stroke-linecap="round" stroke-linejoin="round"/>
<path d="M15 7V23" stroke="url(#paint1_linear_1418_7902)" stroke-width="1.5" stroke-linecap="round" stroke-linejoin="round"/>
<path d="M14.9998 28.3337C22.3636 28.3337 28.3332 22.3641 28.3332 15.0003C28.3332 7.63653 22.3636 1.66699 14.9998 1.66699C7.63604 1.66699 1.6665 7.63653 1.6665 15.0003C1.6665 22.3641 7.63604 28.3337 14.9998 28.3337Z" stroke="url(#paint2_linear_1418_7902)" stroke-width="1.5" stroke-linecap="round" stroke-linejoin="round"/>
<defs>
<linearGradient id="paint0_linear_1418_7902" x1="19.4558" y1="8.78711" x2="8.62247" y2="10.8066" gradientUnits="userSpaceOnUse">
<stop stop-color="#355BE0"/>
<stop offset="1" stop-color="#B945CC"/>
</linearGradient>
<linearGradient id="paint1_linear_1418_7902" x1="16" y1="7" x2="14.7399" y2="7.02052" gradientUnits="userSpaceOnUse">
<stop stop-color="#355BE0"/>
<stop offset="1" stop-color="#B945CC"/>
</linearGradient>
<linearGradient id="paint2_linear_1418_7902" x1="28.3332" y1="1.667" x2="-3.14386" y2="9.86595" gradientUnits="userSpaceOnUse">
<stop stop-color="#355BE0"/>
<stop offset="1" stop-color="#B945CC"/>
</linearGradient>
</defs>
</svg>
