<svg width="25" height="25" viewBox="0 0 25 25" fill="none" xmlns="http://www.w3.org/2000/svg">
<path d="M20.7452 5.88562H18.899V3.96528C18.8982 3.18552 18.6692 2.4245 18.2425 1.7834C17.8158 1.14229 17.2116 0.651473 16.5102 0.376197C15.8089 0.100921 15.0435 0.0542287 14.3161 0.242327C13.5886 0.430425 12.9333 0.844403 12.4375 1.42922C11.965 0.872106 11.3472 0.469517 10.6591 0.270244C9.97103 0.0709707 9.24215 0.0835697 8.56081 0.306514C7.87947 0.529458 7.27492 0.953175 6.82043 1.52632C6.36594 2.09946 6.08102 2.79741 6.00019 3.5356C5.43941 3.19289 4.80154 3.01034 4.15114 3.00643C3.50074 3.00252 2.86089 3.17739 2.29634 3.51334C1.73178 3.84929 1.26255 4.3344 0.936142 4.91958C0.60973 5.50476 0.437713 6.16925 0.4375 6.8458V11.6467C0.4375 14.9572 1.70178 18.1321 3.95222 20.4729C6.20266 22.8138 9.2549 24.1289 12.4375 24.1289C15.6201 24.1289 18.6723 22.8138 20.9228 20.4729C23.1732 18.1321 24.4375 14.9572 24.4375 11.6467V9.72631C24.4375 8.7077 24.0485 7.73081 23.356 7.01054C22.6636 6.29027 21.7245 5.88562 20.7452 5.88562ZM15.2067 2.04493C15.6964 2.04493 16.1659 2.24725 16.5122 2.60739C16.8584 2.96752 17.0529 3.45597 17.0529 3.96528V5.88562H13.3606V3.96528C13.3606 3.45597 13.5551 2.96752 13.9013 2.60739C14.2475 2.24725 14.7171 2.04493 15.2067 2.04493ZM7.82212 3.96528C7.82212 3.45597 8.01662 2.96752 8.36284 2.60739C8.70906 2.24725 9.17864 2.04493 9.66827 2.04493C10.1579 2.04493 10.6275 2.24725 10.9737 2.60739C11.3199 2.96752 11.5144 3.45597 11.5144 3.96528V8.76614C11.5144 9.27545 11.3199 9.7639 10.9737 10.124C10.6275 10.4842 10.1579 10.6865 9.66827 10.6865C9.17864 10.6865 8.70906 10.4842 8.36284 10.124C8.01662 9.7639 7.82212 9.27545 7.82212 8.76614V3.96528ZM2.28365 6.8458C2.28365 6.33649 2.47816 5.84804 2.82438 5.48791C3.1706 5.12777 3.64018 4.92545 4.12981 4.92545C4.61944 4.92545 5.08901 5.12777 5.43524 5.48791C5.78146 5.84804 5.97596 6.33649 5.97596 6.8458V8.76614C5.97596 9.27545 5.78146 9.7639 5.43524 10.124C5.08901 10.4842 4.61944 10.6865 4.12981 10.6865C3.64018 10.6865 3.1706 10.4842 2.82438 10.124C2.47816 9.7639 2.28365 9.27545 2.28365 8.76614V6.8458ZM22.5913 11.6467C22.5913 14.4088 21.551 17.0611 19.6934 19.0349C17.8358 21.0088 15.3088 22.1471 12.6539 22.206C9.99904 22.2649 7.42765 21.2395 5.49088 19.3498C3.55411 17.4601 2.40609 14.8564 2.29288 12.0967C3.03072 12.5381 3.89272 12.7002 4.73241 12.5553C5.5721 12.4105 6.33768 11.9677 6.89904 11.3022C7.53522 12.0562 8.43028 12.5207 9.39203 12.5959C10.3538 12.671 11.3055 12.3509 12.0429 11.7043C12.375 12.2767 12.8441 12.7498 13.4044 13.0773C12.8105 13.617 12.3346 14.2827 12.0086 15.0296C11.6826 15.7765 11.5141 16.5874 11.5144 17.4077C11.5144 17.6624 11.6117 17.9066 11.7848 18.0866C11.9579 18.2667 12.1927 18.3679 12.4375 18.3679C12.6823 18.3679 12.9171 18.2667 13.0902 18.0866C13.2633 17.9066 13.3606 17.6624 13.3606 17.4077C13.3606 16.3891 13.7496 15.4122 14.442 14.6919C15.1345 13.9716 16.0736 13.567 17.0529 13.567C17.2977 13.567 17.5325 13.4658 17.7056 13.2858C17.8787 13.1057 17.976 12.8615 17.976 12.6068C17.976 12.3522 17.8787 12.108 17.7056 11.9279C17.5325 11.7478 17.2977 11.6467 17.0529 11.6467H15.2067C14.7171 11.6467 14.2475 11.4443 13.9013 11.0842C13.5551 10.7241 13.3606 10.2356 13.3606 9.72631V7.80597H20.7452C21.2348 7.80597 21.7044 8.00829 22.0506 8.36843C22.3968 8.72856 22.5913 9.21701 22.5913 9.72631V11.6467Z" fill="url(#paint0_linear_1678_1596)"/>
<defs>
<linearGradient id="paint0_linear_1678_1596" x1="24.4375" y1="0.128909" x2="-3.89183" y2="7.50797" gradientUnits="userSpaceOnUse">
<stop stop-color="#355BE0"/>
<stop offset="1" stop-color="#B945CC"/>
</linearGradient>
</defs>
</svg>
