<svg width="2210" height="617" viewBox="0 0 2210 617" fill="none" xmlns="http://www.w3.org/2000/svg">
<g opacity="0.3" clip-path="url(#clip0_1424_12360)">
<g opacity="0.25">
<line x1="-1" y1="25.0752" x2="3596.16" y2="25.0752" stroke="#C4C4C4"/>
<line x1="-1" y1="141.65" x2="3596.16" y2="141.65" stroke="#C4C4C4"/>
<line x1="-1" y1="258.225" x2="3596.16" y2="258.225" stroke="#C4C4C4"/>
<line x1="-1" y1="374.8" x2="3596.16" y2="374.8" stroke="#C4C4C4"/>
<line x1="-1" y1="491.374" x2="3596.16" y2="491.374" stroke="#C4C4C4"/>
<line x1="-1" y1="607.949" x2="3596.16" y2="607.949" stroke="#C4C4C4"/>
</g>
<g opacity="0.25">
<line x1="1273.5" y1="-1099.13" x2="1273.49" y2="3474.34" stroke="#C4C4C4"/>
<line x1="1156.92" y1="-1099.13" x2="1156.92" y2="3474.34" stroke="#C4C4C4"/>
<line x1="1040.35" y1="-1099.13" x2="1040.35" y2="3474.34" stroke="#C4C4C4"/>
<line x1="923.771" y1="-1099.13" x2="923.771" y2="3474.34" stroke="#C4C4C4"/>
<line x1="807.196" y1="-1099.13" x2="807.196" y2="3474.34" stroke="#C4C4C4"/>
<line x1="690.622" y1="-1099.13" x2="690.622" y2="3474.34" stroke="#C4C4C4"/>
<line x1="574.047" y1="-1099.13" x2="574.047" y2="3474.34" stroke="#C4C4C4"/>
<line x1="457.472" y1="-1099.13" x2="457.472" y2="3474.34" stroke="#C4C4C4"/>
<line x1="340.898" y1="-1099.13" x2="340.897" y2="3474.34" stroke="#C4C4C4"/>
<line x1="224.323" y1="-1099.13" x2="224.323" y2="3474.34" stroke="#C4C4C4"/>
<line x1="107.748" y1="-1099.13" x2="107.748" y2="3474.34" stroke="#C4C4C4"/>
</g>
<g opacity="0.25">
<line x1="2206.09" y1="-1099.13" x2="2206.09" y2="3474.34" stroke="#C4C4C4"/>
<line x1="2089.52" y1="-1099.13" x2="2089.52" y2="3474.34" stroke="#C4C4C4"/>
<line x1="1972.94" y1="-1099.13" x2="1972.94" y2="3474.34" stroke="#C4C4C4"/>
<line x1="1856.37" y1="-1099.13" x2="1856.37" y2="3474.34" stroke="#C4C4C4"/>
<line x1="1739.79" y1="-1099.13" x2="1739.79" y2="3474.34" stroke="#C4C4C4"/>
<line x1="1623.22" y1="-1099.13" x2="1623.22" y2="3474.34" stroke="#C4C4C4"/>
<line x1="1506.64" y1="-1099.13" x2="1506.64" y2="3474.34" stroke="#C4C4C4"/>
<line x1="1390.07" y1="-1099.13" x2="1390.07" y2="3474.34" stroke="#C4C4C4"/>
</g>
</g>
<defs>
<clipPath id="clip0_1424_12360">
<rect width="2211" height="617" fill="white" transform="translate(-1)"/>
</clipPath>
</defs>
</svg>
