<svg width="2211" height="779" viewBox="0 0 2211 779" fill="none" xmlns="http://www.w3.org/2000/svg">
<g opacity="0.3" clip-path="url(#clip0_1545_3535)">
<g opacity="0.5">
<line y1="25.0752" x2="3597.16" y2="25.0752" stroke="#DCDCDC"/>
<line y1="141.65" x2="3597.16" y2="141.65" stroke="#DCDCDC"/>
<line y1="258.225" x2="3597.16" y2="258.225" stroke="#DCDCDC"/>
<line y1="374.8" x2="3597.16" y2="374.8" stroke="#DCDCDC"/>
<line y1="491.374" x2="3597.16" y2="491.374" stroke="#DCDCDC"/>
<line y1="607.949" x2="3597.16" y2="607.949" stroke="#DCDCDC"/>
<line y1="724.523" x2="3597.16" y2="724.523" stroke="#DCDCDC"/>
</g>
<g opacity="0.5">
<line x1="1274.5" y1="-1099.13" x2="1274.5" y2="3474.34" stroke="#DCDCDC"/>
<line x1="1157.92" y1="-1099.13" x2="1157.92" y2="3474.34" stroke="#DCDCDC"/>
<line x1="1041.35" y1="-1099.13" x2="1041.35" y2="3474.34" stroke="#DCDCDC"/>
<line x1="924.771" y1="-1099.13" x2="924.771" y2="3474.34" stroke="#DCDCDC"/>
<line x1="808.196" y1="-1099.13" x2="808.196" y2="3474.34" stroke="#DCDCDC"/>
<line x1="691.622" y1="-1099.13" x2="691.622" y2="3474.34" stroke="#DCDCDC"/>
<line x1="575.047" y1="-1099.13" x2="575.047" y2="3474.34" stroke="#DCDCDC"/>
<line x1="458.473" y1="-1099.13" x2="458.472" y2="3474.34" stroke="#DCDCDC"/>
<line x1="341.898" y1="-1099.13" x2="341.898" y2="3474.34" stroke="#DCDCDC"/>
<line x1="225.323" y1="-1099.13" x2="225.323" y2="3474.34" stroke="#DCDCDC"/>
<line x1="108.748" y1="-1099.13" x2="108.748" y2="3474.34" stroke="#DCDCDC"/>
</g>
<g opacity="0.5">
<line x1="2207.09" y1="-1099.13" x2="2207.09" y2="3474.34" stroke="#DCDCDC"/>
<line x1="2090.52" y1="-1099.13" x2="2090.52" y2="3474.34" stroke="#DCDCDC"/>
<line x1="1973.94" y1="-1099.13" x2="1973.94" y2="3474.34" stroke="#DCDCDC"/>
<line x1="1857.37" y1="-1099.13" x2="1857.37" y2="3474.34" stroke="#DCDCDC"/>
<line x1="1740.79" y1="-1099.13" x2="1740.79" y2="3474.34" stroke="#DCDCDC"/>
<line x1="1624.22" y1="-1099.13" x2="1624.22" y2="3474.34" stroke="#DCDCDC"/>
<line x1="1507.65" y1="-1099.13" x2="1507.64" y2="3474.34" stroke="#DCDCDC"/>
<line x1="1391.07" y1="-1099.13" x2="1391.07" y2="3474.34" stroke="#DCDCDC"/>
</g>
</g>
<defs>
<clipPath id="clip0_1545_3535">
<rect width="2211" height="779" fill="white"/>
</clipPath>
</defs>
</svg>
